PathFileType	4	(X/Y/Z)	G:\Shared drives\HPL_Drive\Nord Sprinting Study\Kristen_Nord_test\Trimmed_Nord000007.trc
DataRate	CameraRate	NumFrames	NumMarkers	Units	OrigDataRate	OrigDataStartFrame	OrigNumFrames
200.00	200.00	      4	52	mm	200.00	1450	      1933
Frame#	Time	C7			R_Shoulder			L_Shoulder			Sternum			R_humerus			R_elbow_med			R_elbow_lat			R_forearm			R_wrist_radius			R_wrist_ulna			L_humerus			L_elbow_med			L_elbow_lat			L_forearm			L_wrist_radius			L_wrist_ulna			r.ASIS			r.PSIS			r_IC			L.ASIS			L.PSIS			l_IC			r_thigh1			r_thigh2			r_thigh3			r_thigh4			r_thigh5			r_knee			r_mknee			r_shank_antsup			r_sh2			r_sh3			r_sh4			r_ankle			r_mankle			r_calc			r_5meta			r_toe			L_thigh1			L_thigh2			L_thigh3			L_thigh4			L_knee			L_mknee			L_shank_antsup			L_sh2			L_sh3			L_ankle			L_mankle			L_calc			L_5meta			L_toe			
		X1	Y1	Z1	X2	Y2	Z2	X3	Y3	Z3	X4	Y4	Z4	X5	Y5	Z5	X6	Y6	Z6	X7	Y7	Z7	X8	Y8	Z8	X9	Y9	Z9	X10	Y10	Z10	X11	Y11	Z11	X12	Y12	Z12	X13	Y13	Z13	X14	Y14	Z14	X15	Y15	Z15	X16	Y16	Z16	X17	Y17	Z17	X18	Y18	Z18	X19	Y19	Z19	X20	Y20	Z20	X21	Y21	Z21	X22	Y22	Z22	X23	Y23	Z23	X24	Y24	Z24	X25	Y25	Z25	X26	Y26	Z26	X27	Y27	Z27	X28	Y28	Z28	X29	Y29	Z29	X30	Y30	Z30	X31	Y31	Z31	X32	Y32	Z32	X33	Y33	Z33	X34	Y34	Z34	X35	Y35	Z35	X36	Y36	Z36	X37	Y37	Z37	X38	Y38	Z38	X39	Y39	Z39	X40	Y40	Z40	X41	Y41	Z41	X42	Y42	Z42	X43	Y43	Z43	X44	Y44	Z44	X45	Y45	Z45	X46	Y46	Z46	X47	Y47	Z47	X48	Y48	Z48	X49	Y49	Z49	X50	Y50	Z50	X51	Y51	Z51	X52	Y52	Z52	

1450	7.245	1203.85754	853.22815	1115.72620	1326.61694	887.94385	1095.78296	1060.98901	890.48364	1103.35669	1195.19495	953.66968	1018.90430	1479.52502	789.78412	1055.59741	1583.42834	735.76263	948.41455	1569.85388	693.90448	1016.78473	1564.61804	795.86804	1091.04663	1537.14990	909.27527	1119.78271	1571.59753	888.78699	1146.59412	878.54309	801.72217	1054.83289	783.85864	788.59534	945.75592	781.96265	738.19843	1006.24561	820.54565	846.40808	1100.38965	869.08392	924.03943	1135.39465	820.61603	925.90894	1151.90002	1317.52356	681.99420	627.50684	1274.80054	609.74280	804.20709	1352.76868	702.56262	732.44958	1082.27649	671.24194	631.50635	1158.40198	605.42017	801.47363	1058.44983	692.66956	725.87244	1374.63428	509.87241	455.70383	1364.79199	441.81665	362.40250	1379.73132	389.32184	367.16241	1387.75330	426.24207	520.69580	1369.44019	358.26520	425.92245	1362.22534	352.04504	301.78119	1241.64185	339.53830	321.66742	1386.27002	215.52489	300.04224	1372.25000	97.66817	310.92996	1397.73962	219.86800	373.89844	1382.76929	105.76422	392.82520	1368.06409	-66.56580	357.74478	1287.54626	-53.51715	342.96420	1317.93860	-88.85983	425.88016	1370.96753	-150.62639	269.94992	1330.21436	-130.39017	218.84145	1028.16504	516.37659	456.99622	1036.33533	437.04849	342.31894	1022.22009	421.96350	530.11652	1034.02747	348.96817	416.00266	1026.97729	343.07791	324.74368	1152.51733	343.42923	305.64868	1012.74500	228.13998	307.75848	1005.05908	238.52977	398.15384	1017.09344	118.67869	402.93390	1026.17542	-58.92078	365.12314	1107.75879	-43.92286	351.00873	1067.48706	-49.50902	427.79269	1044.69861	-174.50331	291.03790	1098.95679	-169.08467	241.90344	
1451	7.250	1203.77209	853.62305	1115.48120	1326.46594	888.15576	1095.68884	1060.94177	890.92194	1103.04456	1195.18567	954.03467	1018.55139	1479.41504	790.03265	1055.35364	1583.26111	735.86719	948.22809	1569.65894	694.05896	1016.66656	1564.56189	796.12476	1090.80652	1537.19824	909.57086	1119.39868	1571.62524	889.08685	1146.29370	878.54407	802.19794	1054.61633	783.85028	788.92065	945.55603	781.92523	738.52747	1006.11584	820.48462	846.83789	1100.16370	869.04852	924.49146	1135.10791	820.60626	926.37543	1151.60095	1317.55542	682.04736	627.42487	1274.61401	609.88831	804.11755	1352.74646	702.61993	732.37457	1082.24146	671.37787	631.22150	1158.12878	605.61395	801.39728	1058.39075	692.94653	725.63910	1374.65100	509.87421	455.67908	1364.88403	441.81912	362.45599	1379.68604	389.34180	367.11111	1387.65015	426.17123	520.71161	1369.48547	358.38226	425.83832	1362.20227	352.01089	301.85464	1241.61365	339.51938	321.64587	1386.20178	215.50720	300.05914	1372.21228	97.65814	311.01315	1397.63965	219.86699	373.97614	1382.66101	105.75990	392.82376	1367.88403	-66.59856	357.81284	1287.39490	-53.54109	342.94952	1317.73865	-88.87492	425.91107	1370.39844	-150.68640	269.85474	1329.99170	-130.43066	218.91179	1028.21179	516.42462	456.81775	1036.38623	437.09451	342.21835	1022.12579	422.20493	529.98187	1033.95056	349.05231	415.92819	1026.96411	343.08838	324.67822	1152.51599	343.43243	305.68225	1012.65662	228.14713	307.67218	1004.95270	238.53233	398.09653	1016.95709	118.71472	402.91147	1025.98914	-58.89183	365.07767	1107.50806	-43.93873	351.10864	1067.14819	-49.40728	427.92654	1044.48645	-174.51024	291.06931	1098.73608	-169.19780	242.02422	
1452	7.255	1202.77014	854.08984	1115.15857	1326.39453	888.46716	1095.45789	1060.91943	891.37311	1102.74634	1195.20654	954.40497	1018.20465	1479.27429	790.25629	1055.13208	1583.09753	735.93317	948.08020	1569.49463	694.20166	1016.52765	1564.48352	796.36792	1090.55566	1537.28955	909.90186	1118.97729	1571.67346	889.32666	1145.99146	878.46277	802.65466	1054.43225	783.79498	789.22284	945.29742	781.91461	738.87079	1005.96527	820.43451	847.25873	1099.95325	869.20398	924.89960	1134.67761	820.53693	926.82104	1151.36426	1317.54578	682.01611	627.25507	1274.42468	610.00848	804.05627	1352.68872	702.65442	732.32678	1082.69690	671.64459	631.07806	1157.92029	605.83771	801.28430	1058.30737	693.21173	725.39673	1374.65381	509.84683	455.69360	1364.98962	441.80185	362.54449	1379.64404	389.39267	367.06396	1387.55896	426.19797	520.76111	1369.27161	358.24265	426.00629	1362.14429	351.99420	301.92068	1241.57800	339.51398	321.65051	1386.14978	215.52391	300.11374	1372.11597	97.62649	311.07336	1397.53345	219.84471	374.00897	1382.53711	105.75995	392.88986	1367.67090	-66.63205	357.89508	1287.30835	-53.56655	342.90063	1317.54724	-88.86034	425.93314	1370.21204	-150.71785	269.94952	1329.82556	-130.46024	218.96323	1028.20947	516.48242	456.68362	1036.40247	437.13025	342.10870	1022.50946	421.34152	529.72290	1033.86084	349.15933	415.87415	1026.91760	343.10751	324.61014	1152.49158	343.46313	305.66995	1012.60931	228.20914	307.57611	1004.72870	238.24156	397.87976	1016.83551	118.73604	402.90143	1026.50391	-58.85767	365.12473	1107.27649	-43.97195	351.21634	1066.81714	-49.37283	427.96588	1044.24817	-174.57108	291.13907	1098.57446	-169.30765	242.00366	
1453	7.260	1202.65234	854.50726	1114.71802	1326.30249	888.78381	1095.21643	1061.00745	891.89862	1102.37195	1195.15564	954.75146	1017.85284	1479.15649	790.46686	1054.92371	1582.94055	736.01288	947.94202	1569.31421	694.31360	1016.45178	1564.38464	796.58563	1090.32495	1537.37573	910.20123	1118.59009	1571.68408	889.59875	1145.69092	878.42145	803.07269	1054.18311	783.73456	789.50861	945.08563	781.83655	739.24078	1005.83411	820.39722	847.70306	1099.72290	869.15393	925.28680	1134.36804	820.45337	927.30078	1151.10681	1317.52856	682.02405	627.15338	1274.26794	610.16553	804.00458	1352.59424	702.73749	732.23511	1082.10645	671.70941	630.77710	1157.68896	606.05786	801.20685	1058.22583	693.47314	725.14893	1374.67456	509.81415	455.71567	1365.01709	441.77087	362.54504	1379.66333	389.37891	366.99664	1387.83289	426.36725	520.91968	1369.17627	358.21918	426.02356	1362.10449	352.00726	301.98627	1241.56067	339.56024	321.59824	1386.05481	215.53239	300.12161	1371.98364	97.64394	311.14252	1397.45300	219.83159	374.06625	1382.44958	105.76438	392.91388	1367.55066	-66.62921	357.96973	1287.16809	-53.60211	342.85181	1317.32385	-88.85091	426.00378	1370.43152	-150.72838	270.22818	1329.63574	-130.46358	219.05037	1028.21228	516.55841	456.54288	1036.41516	437.16962	342.02921	1022.39032	421.54831	529.61853	1033.79016	349.25278	415.82388	1026.89221	343.11160	324.57147	1152.46423	343.43661	305.68155	1012.56317	228.20258	307.55219	1004.62866	238.25783	397.88354	1016.72260	118.69598	402.86209	1026.28296	-58.83463	365.15170	1107.06445	-43.98849	351.32721	1066.48511	-49.33022	428.01944	1043.97705	-174.59480	291.17160	1098.33435	-169.38596	242.04544	
